<svg xmlns="http://www.w3.org/2000/svg" width="99.803" height="99.803" viewBox="0 0 99.803 99.803">
  <path id="clock-regular" d="M57.9,8a49.9,49.9,0,1,0,49.9,49.9A49.893,49.893,0,0,0,57.9,8Zm0,90.145A40.243,40.243,0,1,1,98.145,57.9,40.232,40.232,0,0,1,57.9,98.145ZM70.337,77.138,53.253,64.723a2.43,2.43,0,0,1-.986-1.952V29.731a2.422,2.422,0,0,1,2.415-2.415h6.439a2.422,2.422,0,0,1,2.415,2.415V58.244l13.441,9.779A2.413,2.413,0,0,1,77.5,71.4l-3.783,5.211a2.431,2.431,0,0,1-3.38.523Z" transform="translate(-8 -8)" fill="#39d31e"/>
</svg>
