<svg xmlns="http://www.w3.org/2000/svg" width="101.227" height="90" viewBox="0 0 101.227 90">
  <path id="leaf-solid" d="M96.044,1.685a2.734,2.734,0,0,0-4.974-.211A30.139,30.139,0,0,1,64.724,16.853H50.663A33.754,33.754,0,0,0,16.918,50.6a34.751,34.751,0,0,0,.264,3.6C28.395,46.17,44.582,39.35,67.536,39.35a2.812,2.812,0,1,1,0,5.624C23.351,44.974,4.615,72.059.467,82.235a5.632,5.632,0,0,0,10.422,4.271c.264-.633,3.673-8.419,12.637-15.924a33.671,33.671,0,0,0,30.74,13.568c27.594-2,47.015-26.75,47.015-57.051A63.912,63.912,0,0,0,96.044,1.685Z" transform="translate(-0.055 0.024)" fill="#39d31e"/>
</svg>
