<svg xmlns="http://www.w3.org/2000/svg" width="55" height="97.799" viewBox="0 0 55 97.799">
  <path id="dollar-sign-solid" d="M39.989,44.582,19.36,38.546a5.634,5.634,0,0,1,1.585-11.041H33.61a11.659,11.659,0,0,1,6.533,2.006,2.978,2.978,0,0,0,3.725-.382l6.647-6.494a3.1,3.1,0,0,0-.344-4.68,27.01,27.01,0,0,0-16.523-5.73V3.056A3.065,3.065,0,0,0,30.592,0H24.479a3.065,3.065,0,0,0-3.056,3.056v9.169h-.478A20.929,20.929,0,0,0,.125,35.07c.8,8.806,7.526,15.969,16.007,18.452l19.579,5.73a5.634,5.634,0,0,1-1.585,11.041H21.461a11.659,11.659,0,0,1-6.533-2.006,2.978,2.978,0,0,0-3.725.382L4.556,75.164a3.1,3.1,0,0,0,.344,4.68,27.01,27.01,0,0,0,16.523,5.73v9.169A3.065,3.065,0,0,0,24.479,97.8h6.112a3.065,3.065,0,0,0,3.056-3.056V85.536c8.9-.172,17.248-5.463,20.19-13.887A20.975,20.975,0,0,0,39.989,44.582Z" transform="translate(-0.036)" fill="#39d31e"/>
</svg>
