<svg xmlns="http://www.w3.org/2000/svg" width="47.304" height="47.304" viewBox="0 0 47.304 47.304">
  <path id="instagram-brands" d="M23.582,43.349A12.128,12.128,0,1,0,35.708,55.477,12.108,12.108,0,0,0,23.582,43.349Zm0,20.013a7.885,7.885,0,1,1,7.883-7.885,7.9,7.9,0,0,1-7.883,7.885Zm15.45-20.509A2.828,2.828,0,1,1,36.2,40.024,2.822,2.822,0,0,1,39.032,42.853Zm8.031,2.871c-.179-3.789-1.045-7.146-3.82-9.912s-6.121-3.631-9.909-3.821c-3.9-.222-15.608-.222-19.513,0-3.778.179-7.134,1.045-9.909,3.811S.281,41.924.091,45.713C-.13,49.619-.13,61.325.091,65.23c.179,3.789,1.045,7.146,3.82,9.912s6.121,3.631,9.909,3.821c3.9.222,15.608.222,19.513,0,3.789-.179,7.144-1.045,9.909-3.821s3.63-6.122,3.82-9.912c.222-3.906.222-15.6,0-19.507Zm-5.044,23.7a7.982,7.982,0,0,1-4.5,4.5c-3.113,1.235-10.5.95-13.941.95s-10.838.274-13.941-.95a7.982,7.982,0,0,1-4.5-4.5c-1.235-3.114-.95-10.5-.95-13.944s-.274-10.84.95-13.944a7.982,7.982,0,0,1,4.5-4.5c3.113-1.235,10.5-.95,13.941-.95s10.838-.274,13.941.95a7.982,7.982,0,0,1,4.5,4.5c1.235,3.114.95,10.5.95,13.944S43.253,66.318,42.019,69.421Z" transform="translate(0.075 -31.825)"/>
</svg>
