<svg xmlns="http://www.w3.org/2000/svg" width="47.304" height="47.304" viewBox="0 0 47.304 47.304">
  <path id="whatsapp-brands" d="M40.219,38.874A23.449,23.449,0,0,0,3.326,67.161L0,79.3l12.428-3.263a23.37,23.37,0,0,0,11.2,2.851h.011A23.292,23.292,0,0,0,40.219,38.874ZM23.642,74.943a19.449,19.449,0,0,1-9.925-2.714l-.707-.422L5.638,73.74,7.6,66.549l-.465-.739A19.521,19.521,0,1,1,43.345,55.452,19.7,19.7,0,0,1,23.642,74.943ZM34.327,60.351c-.581-.3-3.463-1.711-4-1.9s-.929-.3-1.32.3-1.51,1.9-1.858,2.3-.686.443-1.267.148c-3.442-1.721-5.7-3.073-7.972-6.969-.6-1.035.6-.961,1.721-3.2A1.085,1.085,0,0,0,19.576,50c-.148-.3-1.32-3.178-1.806-4.35-.475-1.14-.961-.982-1.32-1-.338-.021-.729-.021-1.119-.021a2.17,2.17,0,0,0-1.563.729,6.582,6.582,0,0,0-2.048,4.889c0,2.883,2.1,5.67,2.386,6.061s4.129,6.3,10.01,8.848c3.717,1.6,5.174,1.742,7.032,1.468,1.13-.169,3.463-1.415,3.949-2.788a4.9,4.9,0,0,0,.338-2.788C35.3,60.784,34.908,60.636,34.327,60.351Z" transform="translate(0 -32)"/>
</svg>
